<svg fill="none" xmlns="http://www.w3.org/2000/svg">
  <path data-dimension="xl" fill-rule="evenodd" clip-rule="evenodd" 
        d="M58.7249 49.7496C61.6897 45.3125 63.4913 40.2193 63.9879 34.9373C64.1433 33.2845 62.7828 31.9357 61.1226 31.9357C59.4625 31.9357 58.1348 33.2873 57.9456 34.9366C56.4575 47.9114 45.4377 57.9879 32.0643 57.9879C17.6761 57.9879 6.01208 46.3239 6.01208 31.9357C6.01208 18.5623 16.0886 7.54247 29.0634 6.05436C30.7127 5.86519 32.0643 4.53755 32.0643 2.87736C32.0643 1.21718 30.7155 -0.14329 29.0627 0.0121186C23.7807 0.508743 18.6875 2.31032 14.2504 5.27514C8.9774 8.79842 4.86764 13.8062 2.44077 19.6652C0.0138931 25.5242 -0.621088 31.9712 0.616121 38.1911C1.85333 44.411 4.90716 50.1243 9.39144 54.6086C13.8757 59.0928 19.589 62.1467 25.8089 63.3839C32.0288 64.6211 38.4758 63.9861 44.3348 61.5592C50.1938 59.1324 55.2016 55.0226 58.7249 49.7496Z" 
        fill="none" />
  <path data-dimension="l" fill-rule="evenodd" clip-rule="evenodd" 
        d="M44.0634 37.3074C46.2413 34.048 47.5827 30.3167 47.9877 26.4427C48.1316 25.0661 46.996 23.941 45.6119 23.941C44.2278 23.941 43.1231 25.069 42.9431 26.4414C41.7187 35.7789 33.7307 42.9877 24.059 42.9877C13.5398 42.9877 5.01231 34.4602 5.01231 23.941C5.01231 14.2693 12.2211 6.28128 21.5586 5.05688C22.931 4.87693 24.059 3.77219 24.059 2.38808C24.059 1.00397 22.9339 -0.131586 21.5573 0.012331C17.6833 0.417347 13.952 1.7587 10.6926 3.93661C6.73607 6.58025 3.65237 10.3378 1.8314 14.734C0.0104245 19.1302 -0.466025 23.9676 0.462298 28.6346C1.39062 33.3016 3.68202 37.5885 7.04674 40.9533C10.4115 44.318 14.6984 46.6094 19.3654 47.5377C24.0324 48.466 28.8698 47.9896 33.266 46.1686C37.6622 44.3476 41.4198 41.2639 44.0634 37.3074Z" 
        fill="none" />
  <path data-dimension="m" fill-rule="evenodd" clip-rule="evenodd" 
        d="M22.0541 18.6483C23.0974 17.0869 23.7572 15.3092 23.9896 13.4596C24.0932 12.6348 23.4096 11.9582 22.5783 11.9582C21.747 11.9582 21.0862 12.6372 20.9493 13.4572C20.2353 17.7316 16.519 20.9896 12.0418 20.9896C7.05391 20.9896 3.01045 16.9461 3.01045 11.9582C3.01045 7.48102 6.26836 3.76473 10.5428 3.05073C11.3628 2.91377 12.0418 2.253 12.0418 1.42169C12.0418 0.590385 11.3652 -0.0932215 10.5404 0.0104243C8.69078 0.242847 6.91311 0.902591 5.35172 1.94588C3.37146 3.26904 1.82804 5.14971 0.91663 7.35005C0.00521755 9.5504 -0.23325 11.9716 0.231384 14.3075C0.696018 16.6433 1.84288 18.789 3.52696 20.473C5.21103 22.1571 7.35666 23.304 9.69253 23.7686C12.0284 24.2332 14.4496 23.9948 16.6499 23.0834C18.8503 22.172 20.731 20.6285 22.0541 18.6483Z" 
        fill="none" />
  <path data-dimension="s" fill-rule="evenodd" clip-rule="evenodd" 
        d="M18.3784 15.5402C19.2478 14.2391 19.7976 12.7576 19.9913 11.2163C20.0777 10.5289 19.508 9.9652 18.8153 9.9652C18.1226 9.9652 17.572 10.531 17.4578 11.2142C16.8628 14.7762 13.7659 17.4911 10.035 17.4911C5.8784 17.4911 2.50885 14.1215 2.50885 9.96497C2.50885 6.23397 5.22377 3.13707 8.78583 2.54206C9.46906 2.42793 10.0348 1.87734 10.0348 1.18465C10.0348 0.491952 9.47108 -0.0776724 8.78379 0.00868486C7.24238 0.202359 5.76095 0.75215 4.45977 1.62157C2.80955 2.72421 1.52337 4.29143 0.763858 6.12505C0.00434798 7.95867 -0.194375 9.97633 0.19282 11.9229C0.580015 13.8695 1.53574 15.6575 2.93913 17.0609C4.34252 18.4643 6.13055 19.42 8.07711 19.8072C10.0237 20.1944 12.0413 19.9957 13.875 19.2361C15.7086 18.4766 17.2758 17.1904 18.3784 15.5402Z" 
        fill="none" />
  <path data-dimension="xs" fill-rule="evenodd" clip-rule="evenodd" 
        d="M14.7027 12.4322C15.3983 11.3913 15.8381 10.2062 15.993 8.97308C16.0621 8.42319 15.6064 7.97217 15.0522 7.97217C14.498 7.97217 14.0575 8.4248 13.9661 8.97143C13.4901 11.821 11.0126 13.9929 8.02784 13.9929C4.7026 13.9929 2.00696 11.2972 2.00696 7.97198C2.00696 4.98714 4.17895 2.50959 7.02865 2.03363C7.57524 1.94234 8.02784 1.50187 8.02784 0.947716C8.02784 0.39356 7.57687 -0.0621371 7.02704 0.00694773C5.79391 0.161886 4.60877 0.60172 3.56781 1.29726C2.24764 2.17937 1.21869 3.43315 0.611087 4.90004C0.00347835 6.36694 -0.1555 7.98107 0.154256 9.53832C0.464012 11.0956 1.22859 12.526 2.3513 13.6487C3.47402 14.7714 4.90444 15.536 6.46169 15.8458C8.01894 16.1555 9.63307 15.9965 11.1 15.3889C12.5669 14.7813 13.8206 13.7524 14.7027 12.4322Z" 
        fill="none" />
</svg>
